<svg width="79" height="48" viewBox="0 0 79 48" fill="none" xmlns="http://www.w3.org/2000/svg">
<path fill-rule="evenodd" clip-rule="evenodd" d="M0.253378 47.3658C0.253378 47.3658 0.253293 47.3659 0.384131 47.4393C0.455519 47.5712 0.455612 47.5712 0.455612 47.5712L0.462957 47.5672L0.485443 47.5551L0.573996 47.5078C0.651883 47.4663 0.766774 47.4056 0.91452 47.3284C1.21002 47.174 1.6369 46.9541 2.16194 46.6921C3.21218 46.1681 4.65447 45.4763 6.22332 44.8045C7.79273 44.1325 9.48584 43.4817 11.0384 43.0389C12.5965 42.5944 13.992 42.3657 14.9758 42.5195L15.0221 42.2231C13.9695 42.0586 12.52 42.3043 10.9561 42.7504C9.38648 43.1981 7.68044 43.8542 6.10523 44.5287C4.52947 45.2035 3.08168 45.898 2.028 46.4237C1.50109 46.6866 1.07255 46.9074 0.775615 47.0625C0.768812 47.066 0.762079 47.0695 0.755415 47.073C0.800484 46.9895 0.851203 46.8949 0.906977 46.7901C1.15123 46.331 1.4925 45.6755 1.8809 44.8892C2.65741 43.3171 3.62357 41.2195 4.37911 39.1221C5.13279 37.0299 5.68431 34.9183 5.61579 33.3256C5.58148 32.5282 5.39104 31.8406 4.97202 31.3528C4.54832 30.8597 3.91105 30.5939 3.03584 30.6024L3.03876 30.9024C3.84841 30.8945 4.39185 31.1379 4.74446 31.5483C5.10175 31.9642 5.28319 32.5746 5.31606 33.3385C5.38189 34.8685 4.8489 36.9327 4.09687 39.0204C3.34669 41.103 2.38592 43.1893 1.61193 44.7563C1.22508 45.5395 0.885215 46.1923 0.642134 46.6491C0.520599 46.8775 0.423275 47.057 0.356389 47.1792C0.322946 47.2403 0.297115 47.2871 0.279672 47.3185L0.259898 47.3541L0.253378 47.3658ZM0.384131 47.4393L0.455612 47.5712L0 47.8177L0.253378 47.3658L0.384131 47.4393Z" fill="white"/>
<path fill-rule="evenodd" clip-rule="evenodd" d="M38.6467 11.0818C25.7632 18.0257 14.2653 27.7827 7.31441 39.0339L7.56964 39.1915C14.486 27.9963 25.9387 18.2719 38.7891 11.3459C51.6394 4.41996 65.8736 0.299878 78.3434 0.299878V-0.00012207C65.8131 -0.00012264 51.5302 4.13801 38.6467 11.0818Z" fill="white"/>
</svg>
