<svg width="81" height="16" viewBox="0 0 81 16" fill="none" xmlns="http://www.w3.org/2000/svg">
<g clip-path="url(#clip0_18_26595)">
<mask id="mask0_18_26595" style="mask-type:luminance" maskUnits="userSpaceOnUse" x="0" y="0" width="81" height="16">
<path d="M80.6667 0H0V15.3411H80.6667V0Z" fill="white"/>
</mask>
<g mask="url(#mask0_18_26595)">
<path fill-rule="evenodd" clip-rule="evenodd" d="M64.2235 2.0495C64.2235 0.917147 65.1222 0 66.2306 0C67.3393 0 68.238 0.917147 68.238 2.0495C68.238 3.18185 67.3393 4.09899 66.2306 4.09899C65.1222 4.09899 64.2235 3.17995 64.2235 2.0495ZM3.72117 0.250115H0V15.1659H7.5224L6.58211 11.5109H3.72117V0.250115ZM19.2463 9.05973C19.2463 12.868 16.5303 15.3411 13.0016 15.3411C9.47287 15.3411 6.84247 12.8898 6.84247 9.05973C6.84247 5.25145 9.51573 2.77839 13.0445 2.77839C16.5732 2.77839 19.2463 5.25145 19.2463 9.05973ZM15.6749 9.08153C15.6749 7.5934 14.5201 6.32383 13.0445 6.32383C11.5474 6.32383 10.4139 7.54953 10.4139 9.05973C10.4139 10.5479 11.5259 11.8393 13.0016 11.8393C14.4772 11.8393 15.6749 10.5917 15.6749 9.08153ZM31.6226 10.6355H27.9014C27.4523 11.314 26.7679 11.6413 25.8912 11.6413C24.4797 11.6413 23.3673 10.5469 23.3673 9.0806C23.3673 7.67993 24.3511 6.47603 25.9121 6.47603C26.8317 6.49804 27.5161 6.89207 27.9652 7.65807H31.4725C30.895 4.68139 28.7351 2.77726 25.7415 2.77726C22.1915 2.77726 19.7321 5.22869 19.7321 9.0586C19.7321 12.8885 22.2342 15.3399 25.8047 15.3399C28.8211 15.3411 31.0024 13.7216 31.6226 10.6355ZM44.7047 2.95336V15.1661H41.0469V13.4369C40.3411 14.5755 39.0367 15.3411 37.3464 15.3411C34.4165 15.3411 32.1069 12.846 32.1069 9.03793C32.1069 5.22982 34.4181 2.77821 37.3691 2.77821C39.0581 2.77821 40.3633 3.5443 41.0476 4.68234V2.95336H44.7047ZM40.9835 8.995C40.9835 7.50667 39.7431 6.25913 38.2888 6.25913C36.7919 6.25913 35.5301 7.4192 35.5301 8.9728C35.5301 10.4832 36.6636 11.7307 38.2888 11.7307C39.8285 11.7299 40.9835 10.5701 40.9835 8.995ZM51.4528 7.72547C49.913 7.37533 49.1858 7.17833 49.1858 6.54378C49.1858 6.0185 49.7631 5.66819 50.6186 5.66819C51.6243 5.66819 52.1367 6.14982 52.2439 6.93773H55.6421C55.3855 4.42065 53.6769 2.69167 50.7042 2.69167C47.5605 2.69167 45.7427 4.37701 45.7427 6.60944C45.7427 9.2138 47.8599 9.8486 49.9555 10.3739L50.0242 10.3929C51.5156 10.7955 52.1796 10.9749 52.1796 11.5999C52.1796 12.1909 51.4739 12.5194 50.5971 12.5194C49.5705 12.5194 48.993 11.9721 48.9082 11.1623H45.2508C45.4216 13.5261 47.539 15.3426 50.7042 15.3426C53.7623 15.3426 55.7939 13.7675 55.7939 11.5999C55.7298 8.8846 53.6981 8.2718 51.4528 7.72453V7.72547ZM68.776 9.06067C68.776 12.8907 71.278 15.342 74.85 15.342C77.8653 15.342 80.046 13.7225 80.6667 10.6357H76.9453C76.496 11.3142 75.812 11.6415 74.9353 11.6415C73.524 11.6415 72.4113 10.5471 72.4113 9.0808C72.4113 7.68013 73.3953 6.47622 74.9567 6.47622C75.876 6.49823 76.56 6.89227 77.0093 7.65827H80.5167C79.94 4.68158 77.7793 2.77745 74.786 2.77745C71.2353 2.77821 68.776 5.22963 68.776 9.05973V9.06067ZM61.1329 6.06233H63.5189V2.95336H61.1329V0.062244L57.4761 1.01488V2.95336H55.9148V6.06119H57.4761V10.9193C57.4761 13.9176 59.0799 15.1653 61.6677 15.1653H63.4775V11.9321H62.3053C61.5141 11.9321 61.1329 11.5654 61.1329 10.843V6.06233ZM64.4349 4.57683V15.1122H68.132V4.57569L64.4349 4.57683Z" fill="#4397F7"/>
</g>
</g>
<defs>
<clipPath id="clip0_18_26595">
<rect width="80.6667" height="16" fill="white"/>
</clipPath>
</defs>
</svg>
